PathFileType	4	(X/Y/Z)	walk-thru1-3-TP.trc
DataRate	CameraRate	NumFrames	NumMarkers	Units	OrigDataRate	OrigDataStartFrame	OrigNumFrames
120.00	120.00	       6	60	mm	120.00	265	       528
Frame#	Time	Top.Head			Front.Head			Rear.Head			Jaw			C7			R.Clavicle			L.Clavicle			R.Shoulder			L.Shoulder			R.Scapula			L.Scapula			R.Scap.Inf			R.Biceps.Lateral			R.Elbow			R.Elbow.Medial			R.Forearm			R.Ulna			R.Radius			R.Wrist			R.Thumb.M1			R.Thumb.M2			R.Thumb.M3			R.Finger3.M1			R.Finger3.M2			R.Finger3.M3			L.Biceps.Lateral			L.Elbow			L.Elbow.Medial			L.Forearm			L.Ulna			L.Radius			L.Wrist			L.Thumb.M1			L.Thumb.M2			L.Thumb.M3			L.Finger3.M1			L.Finger3.M2			L.Finger3.M3			V.Sacral			R.ASIS			L.ASIS			R.Thigh			R.Thigh.Front			R.Knee			R.Knee.Medial			R.Shank			R.Ankle			R.Ankle.Medial			R.Heel			R.Toe			R.MedFoot			L.Thigh			L.Knee			L.Knee.Medial			L.Shank			L.Ankle			L.Ankle.Medial			L.Heel			L.Toe			L.MedFoot			V_mid_ASIS			V_R_Knee_JC			V_L_Knee_JC			V_R_Elbow_JC			V_L_Elbow_JC			V_R_Ankle_JC			V_L_Ankle_JC			V_R_Wrist_JC			V_L_Wrist_JC			V_R_ScaTrpz_1stMC_JC			V_R_1stMC_1stPP_JC			V_R_1stPP_1stDP_JC			V_R_LunCap_3rdMC_JC			V_R_3rdMC_3rdPP_JC			V_R_3rdPP_3rdMP_JC			V_R_3rdMP_3rdDP_JC			V_L_ScaTrpz_1stMC_JC			V_L_1stMC_1stPP_JC			V_L_1stPP_1stDP_JC			V_L_LunCap_3rdMC_JC			V_L_3rdMC_3rdPP_JC			V_L_3rdPP_3rdMP_JC			V_L_3rdMP_3rdPP_JC			V_ROOT_JC			V_R_Hip_JC			V_L_Hip_JC			V_R_GlenHum_JC			V_L_GlenHum_JC			V_ForeHead_Ctr			V_Vertex			V_Sagit_Lambdoid_Suture			V_R_FrontoTemp			V_L_FrontoTemporal			V_R_ParietalOccip			V_L_ParietalOcciptal			V_R_Temporal			V_L_Temporal			V_mid_FrontRearHead			V_mid_RLGlenHumCtrs			V_C7_vert			V_C1_vert			V_Mid_Hip			
		X1	Y1	Z1	X2	Y2	Z2	X3	Y3	Z3	X4	Y4	Z4	X5	Y5	Z5	X6	Y6	Z6	X7	Y7	Z7	X8	Y8	Z8	X9	Y9	Z9	X10	Y10	Z10	X11	Y11	Z11	X12	Y12	Z12	X13	Y13	Z13	X14	Y14	Z14	X15	Y15	Z15	X16	Y16	Z16	X17	Y17	Z17	X18	Y18	Z18	X19	Y19	Z19	X20	Y20	Z20	X21	Y21	Z21	X22	Y22	Z22	X23	Y23	Z23	X24	Y24	Z24	X25	Y25	Z25	X26	Y26	Z26	X27	Y27	Z27	X28	Y28	Z28	X29	Y29	Z29	X30	Y30	Z30	X31	Y31	Z31	X32	Y32	Z32	X33	Y33	Z33	X34	Y34	Z34	X35	Y35	Z35	X36	Y36	Z36	X37	Y37	Z37	X38	Y38	Z38	X39	Y39	Z39	X40	Y40	Z40	X41	Y41	Z41	X42	Y42	Z42	X43	Y43	Z43	X44	Y44	Z44	X45	Y45	Z45	X46	Y46	Z46	X47	Y47	Z47	X48	Y48	Z48	X49	Y49	Z49	X50	Y50	Z50	X51	Y51	Z51	X52	Y52	Z52	X53	Y53	Z53	X54	Y54	Z54	X55	Y55	Z55	X56	Y56	Z56	X57	Y57	Z57	X58	Y58	Z58	X59	Y59	Z59	X60	Y60	Z60	

265	2.200	370.63031	-11.24563	1560.84290	270.88449	-6.54780	1459.41052	483.39597	-4.70110	1481.22888	302.42282	9.56797	1319.94922	500.97601	12.61149	1371.27197	420.56433	124.81522	1281.15552	403.86392	-89.75735	1287.54480	470.84860	199.42459	1277.40881	451.96393	-185.76825	1287.36365	550.87891	97.55506	1293.70422	548.83905	-84.46822	1293.90918	596.85712	78.94373	1212.65735	434.90115	252.27885	1137.63098	434.18744	275.71805	974.66077	463.15012	208.15968	951.87335	341.90668	263.47760	921.40430	346.59036	288.93518	831.69727	272.31760	241.91473	805.11102	266.89035	281.89188	771.03149	233.68192	243.43898	763.29877	212.27293	228.72017	733.39368	193.65932	218.63676	696.10571	227.18051	296.55450	705.35187	211.26646	274.94232	657.23553	214.83978	252.99376	623.86371	469.38739	-244.15675	1141.30493	514.86505	-251.87595	995.03577	536.15027	-174.60176	988.89844	427.74811	-236.80775	933.95386	437.53705	-269.78970	840.95465	380.91931	-215.98642	803.38971	374.61563	-264.24496	779.87665	347.07239	-225.06145	769.80743	329.74438	-206.45523	730.82397	323.35913	-202.75279	678.76001	335.89182	-276.55652	700.33203	329.20291	-262.06708	661.82263	332.72446	-225.90910	629.92871	608.25073	1.74901	901.67902	423.28378	166.14986	970.24646	423.08557	-153.09219	952.88214	418.17035	185.18820	577.17480	357.11993	110.70908	488.89084	408.59412	142.56293	439.33054	401.28705	29.91830	436.30051	427.65707	85.59598	267.12411	528.67780	90.15581	65.20215	507.07568	-0.14728	83.72301	585.55219	30.42449	42.52872	386.91010	72.79343	39.07910	439.97339	26.40502	64.80707	335.55731	-184.90939	594.08337	275.19748	-161.01701	463.89120	255.21234	-38.12774	451.96887	301.50677	-106.73191	269.12418	400.26669	-122.78767	90.55396	378.17297	-33.36858	108.38087	457.79276	-66.87868	70.64184	263.64627	-93.34532	53.56196	306.23773	-58.99251	78.94319																																																																																																																															
266	2.208	366.66138	-11.35814	1560.17004	266.91461	-7.12813	1459.11292	479.62677	-4.67898	1481.42310	297.89261	9.16707	1319.21472	495.83459	11.76006	1371.17969	416.09030	123.76328	1280.72839	399.44052	-91.06036	1287.00342	465.88910	200.03377	1277.07690	447.80673	-184.31908	1286.79211	547.10455	97.43280	1293.27930	544.05890	-84.17934	1293.60583	593.20435	79.56942	1211.86975	429.50909	252.43672	1137.56445	429.52441	275.03482	973.89801	457.81644	207.18465	951.32605	335.65842	264.62015	921.61847	340.04337	288.36630	831.98547	265.04410	241.67043	805.64154	260.02243	280.75607	771.70215	226.91017	243.38188	765.06268	204.96390	227.46648	734.23810	186.14978	217.75719	697.86017	219.92931	295.80966	706.10468	204.34508	274.03690	658.27246	208.39084	251.35661	624.09290	464.78143	-245.12311	1139.75720	510.76602	-252.17497	994.64862	531.62170	-174.09790	987.08832	423.74152	-237.15668	933.70935	433.86923	-269.78738	839.97931	376.58414	-215.34262	802.00140	370.42642	-264.01328	779.17108	342.17313	-225.77194	769.11475	325.77719	-207.13397	730.32349	320.39395	-202.94000	677.43518	332.35065	-276.43683	699.55939	324.47498	-262.24222	660.30231	329.37314	-226.06918	628.38824	603.89911	1.11393	901.28046	419.33969	166.00725	969.69952	418.37793	-152.98578	952.43976	414.98871	185.75723	576.86719	355.56494	112.43871	488.73557	407.01663	142.75673	439.28210	398.93329	31.16022	435.51669	426.75119	85.23492	266.39539	528.42261	89.97515	65.38477	506.79816	-0.01515	83.57968	585.54529	30.86940	42.77995	385.83527	72.62644	38.72121	439.97339	26.40502	64.80707	330.43979	-183.03754	593.55493	268.62717	-160.23422	464.03351	248.76649	-36.82670	452.30435	290.21320	-104.32159	269.06058	383.25333	-122.35255	87.79879	362.13043	-33.34908	104.77097	440.28140	-65.98619	66.67959	245.50337	-92.71878	53.93803	289.43393	-58.09256	78.55766																																																																																																																															
267	2.217	361.91464	-12.01138	1560.77197	262.36969	-8.21889	1459.14087	474.57227	-6.51860	1479.92322	293.75012	8.56711	1318.86804	492.05774	11.57170	1368.92749	411.73718	124.13181	1280.26575	394.90100	-90.55947	1286.77100	461.68167	199.54146	1276.14612	443.79034	-185.15123	1285.96387	542.44904	96.70204	1292.75977	540.11127	-84.65990	1292.94226	588.41638	78.91042	1211.30042	425.66629	251.96863	1137.32031	423.56186	275.62863	972.93768	452.11084	207.52455	951.57184	330.09500	263.39542	921.48285	333.32642	287.59637	832.24030	258.40344	240.84232	807.29333	253.74210	280.08121	772.19983	219.62601	241.37196	766.19757	197.94753	226.13390	735.61725	178.30022	216.22627	699.55023	212.90863	294.29623	706.95636	195.94656	271.90695	659.87360	200.21327	248.59309	625.22729	460.86084	-244.70961	1139.41260	506.86111	-252.04919	993.91895	527.58051	-174.30167	987.36560	419.35355	-236.48277	932.19696	429.30441	-268.54065	839.04376	372.47357	-215.14244	802.10101	366.57370	-264.46689	777.97772	338.65033	-225.50175	768.46582	321.48666	-207.18530	729.43854	314.37497	-201.68170	677.14417	327.80557	-276.87216	698.09760	321.95764	-262.17953	659.38977	325.27084	-225.14935	627.29279	599.48315	1.14503	901.35077	415.06570	165.89673	968.93726	413.17099	-152.72603	952.01331	412.72885	186.02946	576.51257	352.00150	112.29729	488.08499	404.18579	141.99345	438.41959	395.62158	30.57175	435.28159	426.00180	85.42899	266.12476	528.29065	89.82658	65.33296	506.45535	-0.07815	83.58637	585.96674	31.54256	42.66414	385.68188	72.41088	38.79260	440.54639	26.74446	63.91986	325.32874	-183.03580	593.02612	262.47156	-158.46725	463.89835	243.85789	-35.92215	452.85049	278.90707	-102.27175	268.85825	366.73859	-121.48205	85.14107	346.04846	-32.40099	103.12852	423.42200	-66.41923	61.03837	227.83887	-91.15972	54.65619	272.78729	-57.07804	77.84955																																																																																																																															
268	2.225	357.11224	-12.02662	1559.72424	258.24335	-8.36562	1458.64282	470.41360	-5.48557	1479.62463	289.52899	8.03852	1318.61755	487.86487	10.19378	1369.35083	406.81491	124.11050	1279.76611	390.39249	-91.27142	1285.89246	457.19791	198.75612	1275.69775	439.64578	-184.94568	1285.52319	538.23212	97.37508	1291.93652	536.03235	-85.27850	1292.14807	583.51910	79.41342	1210.69153	419.95627	252.07970	1136.06873	418.79391	273.93192	972.88776	446.09171	205.56090	950.70526	325.12961	262.82806	921.32275	326.97052	286.21066	832.18768	252.16792	239.64395	807.09625	246.69733	279.44385	772.88324	213.52071	240.29117	766.54541	191.19333	224.92340	737.11127	172.12936	214.98363	700.53876	205.93768	292.71497	707.44470	190.97688	271.10229	659.61481	194.03911	245.56343	625.81281	456.92456	-244.64723	1138.79651	501.93161	-252.15620	993.04700	522.59448	-173.44737	986.46021	415.31268	-236.56422	931.59479	425.11771	-269.71509	838.57874	367.87875	-214.89267	801.24860	362.43948	-264.55380	776.81055	332.96225	-226.65088	767.37451	317.26913	-206.85844	728.24915	310.38092	-202.81886	676.18976	324.47375	-276.64801	697.11597	317.51462	-262.57187	658.34259	321.23679	-225.44670	626.48956	594.42310	1.08954	900.71967	409.42743	167.18462	968.77948	408.47748	-152.79527	951.13379	408.66647	185.28127	575.89862	350.49091	110.88739	486.74182	402.16733	141.38574	437.98285	393.75113	30.79673	434.91956	425.00739	85.83620	266.04697	527.93994	89.76215	65.58271	506.00720	0.14206	83.57312	585.99304	31.60860	42.99735	385.77695	72.63299	38.46628	439.59323	25.94837	64.64628	319.09811	-182.95045	592.21521	256.03940	-158.59555	464.02148	238.06918	-35.23069	452.83868	267.43893	-100.87227	269.52460	349.99075	-120.83154	83.18962	329.93405	-32.75031	101.63932	406.53528	-66.11535	58.76522	210.71379	-90.96404	55.27572	255.98891	-56.81661	77.85681																																																																																																																															
269	2.233	353.42291	-12.34377	1559.29358	253.74622	-9.15272	1458.27893	465.62445	-7.01652	1479.29309	284.83191	6.94242	1318.21899	484.41104	10.48892	1368.62451	402.26581	123.28622	1279.66296	386.22464	-92.08714	1285.53821	453.14163	198.72667	1275.15979	435.10822	-185.10501	1284.08167	533.57159	96.26538	1291.30322	530.66827	-85.71377	1291.88757	579.43396	79.44531	1210.01685	416.12592	251.36378	1135.59583	413.73712	273.22052	972.62164	441.40366	205.00665	950.93915	319.66833	262.36560	921.96289	321.24808	284.74866	831.95367	245.84056	238.39954	808.01257	240.94977	277.75558	773.44031	206.83107	239.77162	767.24847	184.23872	223.41548	737.85858	165.22374	212.95055	701.67963	199.99541	292.27945	708.08752	183.77982	269.54800	660.71289	185.54144	244.38966	627.27081	452.79715	-245.34602	1137.66003	497.86499	-252.27672	992.51135	519.15930	-173.51172	985.97040	409.96469	-238.12665	930.64392	421.46759	-270.07281	838.04993	363.10010	-216.09898	799.95721	358.41968	-265.22122	776.06006	330.14227	-226.05914	766.42865	313.52124	-207.18390	726.98474	307.09805	-202.64951	675.35229	321.14816	-276.58041	695.82556	313.79663	-262.31830	656.73206	317.25854	-225.38506	625.52002	589.90253	1.45456	900.17218	404.59500	166.45297	967.86108	403.69250	-153.72647	950.94708	406.41858	185.44533	575.40607	347.27460	111.08138	485.52798	400.27927	141.31473	437.56625	393.81946	29.29618	434.61014	423.34546	85.16994	264.83295	528.68262	88.28098	65.45438	505.83926	0.20885	83.45566	585.86359	31.29581	43.16237	386.17957	71.87204	38.11770	439.83569	25.95305	64.49819	314.82919	-181.96008	591.19373	249.92909	-157.89360	463.35669	232.36029	-32.54787	452.01932	256.61636	-101.05959	269.20111	333.60886	-119.74360	80.39046	314.69696	-32.82946	99.54664	389.78094	-66.34291	55.25112	194.04355	-88.53078	56.25930	239.67546	-55.84674	77.92722																																																																																																																															
270	2.242	349.38370	-13.81000	1558.44812	249.74321	-9.86040	1457.80164	462.17566	-7.21329	1478.89734	280.36963	7.73350	1317.58655	479.43893	9.28943	1368.91418	398.18570	122.49606	1278.71399	381.96133	-92.46578	1284.37183	448.35370	198.21622	1274.71423	430.84705	-185.98997	1283.59021	528.60394	97.09243	1290.98889	527.56659	-85.72206	1290.94226	575.18555	78.42539	1209.56458	411.43890	250.29646	1135.65820	408.26904	273.11978	972.28918	436.97415	206.23357	949.47443	313.27402	261.17526	921.69458	316.66647	284.07974	831.69128	240.52100	237.20001	808.38562	235.29988	276.28360	773.83704	200.54591	238.85463	768.14917	178.42500	222.27438	738.64648	158.67476	211.63953	702.31061	192.69893	290.04224	709.16064	177.18764	268.04446	661.05872	177.54120	243.36591	628.09430	448.17911	-244.72261	1136.91614	493.38480	-252.57138	990.96252	512.07849	-174.51689	984.85248	406.32025	-237.53137	929.85895	417.13678	-270.44208	836.74146	358.69995	-215.10083	798.47095	354.36185	-264.98898	774.72845	325.31525	-225.99121	765.27856	309.78989	-207.76605	725.32526	303.92682	-202.32790	673.18915	316.87320	-277.22418	694.74133	310.66946	-262.14783	655.71045	313.60468	-225.99474	624.50214	584.91034	0.90818	899.77155	400.35941	166.02946	966.95459	398.58911	-153.89008	950.15967	402.62488	184.65657	574.80103	345.81491	110.58314	484.91644	397.52762	142.02908	437.07162	390.59094	29.61648	434.26727	422.26144	85.44287	264.32697	528.68262	88.28098	65.45438	505.74615	0.10610	83.46070	586.00891	31.22286	43.30727	385.92465	72.82350	38.28952	440.09628	26.59321	64.32452	310.17593	-182.41977	590.57489	244.16188	-157.20244	463.57495	227.10970	-32.71555	452.43704	246.21599	-99.58829	269.17545	317.50540	-120.19309	78.52455	300.05652	-31.11555	98.72013	373.47589	-66.37730	52.20907	177.85663	-86.38278	57.37815	224.13928	-54.34041	77.96263																																																																																																																															
